<svg width="195.18764038085936px" height="120.8px" xmlns="http://www.w3.org/2000/svg" viewBox="152.40617980957032 14.600000000000001 195.18764038085936 120.8" style="background: rgba(0, 0, 0, 0);" preserveAspectRatio="xMidYMid"><defs><filter id="editing-extrusion" x="-100%" y="-100%" width="300%" height="300%"><feFlood result="color1" flood-color="#bcbcbc"></feFlood><feConvolveMatrix order="8,8" divisor="1" kernelMatrix="1 0 0 0 0 0 0 0 0 1 0 0 0 0 0 0 0 0 1 0 0 0 0 0 0 0 0 1 0 0 0 0 0 0 0 0 1 0 0 0 0 0 0 0 0 1 0 0 0 0 0 0 0 0 1 0 0 0 0 0 0 0 0 1" in="SourceAlpha" result="extrude"></feConvolveMatrix><feComposite in="color1" in2="extrude" result="comp-extrude" operator="in"></feComposite><feOffset dx="4" dy="4" in="comp-extrude" result="offset-extrude"></feOffset><feMerge><feMergeNode in="offset-extrude"></feMergeNode><feMergeNode in="SourceGraphic"></feMergeNode></feMerge></filter></defs><g filter="url(#editing-extrusion)"><g transform="translate(187.75011137127876, 97.11000061035156)"><path d="M26.11-42.69L26.11-42.69L26.11-42.69Q41.79-42.69 41.79-31.62L41.79-31.62L41.79-31.62Q41.79-25.54 37.89-21.89L37.89-21.89L37.89-21.89Q34.05-18.24 27.33-18.24L27.33-18.24L27.33-18.24Q24.19-18.24 21.76-20.03L21.76-20.03L21.76-20.03Q20.61-20.80 19.84-21.82L19.84-21.82L19.84-21.82Q24.51-21.82 26.98-24.67L26.98-24.67L26.98-24.67Q29.44-27.52 29.44-33.09L29.44-33.09L29.44-33.09Q29.44-38.66 23.94-38.66L23.94-38.66L22.40-38.66L22.40-38.66Q22.02-38.66 21.70-38.59L21.70-38.59L14.34 0L0.45 0L8.32-41.92L8.32-41.92Q15.17-42.56 19.14-42.62L19.14-42.62L19.14-42.62Q23.10-42.69 26.11-42.69ZM83.65-26.56L83.65-26.56L83.65-26.56Q83.65 0.70 54.08 0.70L54.08 0.70L54.08 0.70Q49.34 0.70 41.54-0.45L41.54-0.45L48.70-38.27L48.70-38.27Q49.22-40.83 49.54-42.30L49.54-42.30L49.54-42.30Q59.26-43.01 63.58-43.01L63.58-43.01L63.58-43.01Q67.90-43.01 71.87-42.11L71.87-42.11L71.87-42.11Q75.84-41.22 78.46-39.23L78.46-39.23L78.46-39.23Q83.65-35.33 83.65-26.56ZM70.46-28.93L70.46-28.93L70.46-28.93Q70.46-38.46 63.62-38.46L63.62-38.46L62.98-38.46L62.98-38.46Q62.66-38.46 62.34-38.40L62.34-38.40L55.74-4.03L55.74-4.03Q56-3.90 56.26-3.90L56.26-3.90L56.77-3.90L56.77-3.90Q59.14-3.90 61.60-5.38L61.60-5.38L61.60-5.38Q64.06-6.85 65.98-9.86L65.98-9.86L65.98-9.86Q70.46-16.83 70.46-28.93ZM88.51-39.68L88.51-39.68L88.51-39.68Q90.37-43.52 95.52-43.52L95.52-43.52L95.52-43.52Q100.67-43.52 103.07-40.54L103.07-40.54L103.07-40.54Q105.47-37.57 105.47-30.72L105.47-30.72L105.47-7.87L121.02-42.18L128.64-42.18L108.74 0L93.76 0L91.84-30.72L91.84-30.72Q91.65-34.11 90.72-36.42L90.72-36.42L90.72-36.42Q89.79-38.72 88.51-39.68Z" fill="#6200ee"></path></g></g><style>text {
  font-size: 64px;
  font-family: Arial Black;
  dominant-baseline: central;
  text-anchor: middle;
}</style></svg>